<svg width="40" height="40" viewBox="0 0 40 40" fill="none" xmlns="http://www.w3.org/2000/svg" role="img" aria-labelledby="title desc">
  <title id="title">Newslingo compass option C</title>
  <desc id="desc">Compass mark with a stronger navigation-pointer look.</desc>
  <circle cx="20" cy="20" r="11.75" stroke="#7CEBDD" stroke-width="3"/>
  <path d="M20 8.75V11.3" stroke="#7CEBDD" stroke-width="2.2" stroke-linecap="round"/>
  <path d="M25.7 14.3L21.4 25.7C21.1 26.4 20.1 26.5 19.6 25.9L14.1 20.4C13.5 19.9 13.6 18.9 14.3 18.6L25.7 14.3Z" fill="#0F766E"/>
  <path d="M14.3 25.7L18.6 14.3C18.9 13.6 19.9 13.5 20.4 14.1L25.9 19.6C26.5 20.1 26.4 21.1 25.7 21.4L14.3 25.7Z" fill="#7CEBDD"/>
  <circle cx="20" cy="20" r="2.35" fill="#F8FAFC"/>
  <path d="M20 11.8L21 14.2L23.4 15.2L21 16.2L20 18.6L19 16.2L16.6 15.2L19 14.2L20 11.8Z" fill="#0F766E" opacity="0.85"/>
</svg>
