<svg width="64" height="64" viewBox="0 0 64 64" fill="none" xmlns="http://www.w3.org/2000/svg" role="img" aria-labelledby="title desc">
  <title id="title">Newslingo compass icon</title>
  <desc id="desc">A friendly compass icon with a small sparkle, designed to sit beside the Newslingo wordmark.</desc>
  <circle cx="30" cy="34" r="18" stroke="#0F766E" stroke-width="4" stroke-linecap="round"/>
  <path d="M44.5 19.5C47.5 22.5 49.2 26.6 49.2 31" stroke="#0F766E" stroke-width="4" stroke-linecap="round"/>
  <path d="M39.8 22.8L32.4 43.1C32.1 43.9 31 44 30.5 43.3L25.9 36.9C25.6 36.5 25.6 35.9 26 35.5L38.1 21.9C38.8 21.2 40.1 21.9 39.8 22.8Z" fill="#0F766E"/>
  <path d="M24.2 45.2L31.6 24.9C31.9 24.1 33 24 33.5 24.7L38.1 31.1C38.4 31.5 38.4 32.1 38 32.5L25.9 46.1C25.2 46.8 23.9 46.1 24.2 45.2Z" fill="#5EEAD4"/>
  <circle cx="32" cy="34" r="2.6" fill="#F8FAFC"/>
  <path d="M51 8L52.8 13.2L58 15L52.8 16.8L51 22L49.2 16.8L44 15L49.2 13.2L51 8Z" fill="#0F766E"/>
</svg>
